<svg height="263.891" viewBox="0 0 864.736 351.855" width="648.552" xmlns="http://www.w3.org/2000/svg"><path d="m176 188.038c-24.321 0-44.036-19.716-44.036-44.037 0-24.32 19.715-44.036 44.036-44.036s44.037 19.716 44.037 44.036c0 24.321-19.716 44.037-44.037 44.037z" fill="none" stroke="#000" stroke-width="3"/><path d="m175.913 112.513h8.05v62.977h-8.05z" fill="none" stroke="#000" stroke-width="3"/><path d="m175.913 144.612h-43.949" fill="none" stroke="#000" stroke-width="2"/><path d="m201.956 110.519-17.993 21.782" fill="none" stroke="#000" stroke-width="2"/><path d="m201.956 178.231-10.478-12.684" fill="none" stroke="#000" stroke-width="2"/><path d="m194.254 163.254-8.89-5.108 3.339 9.694z" stroke="#000" stroke-width="2"/><path d="m76.338 204.9h-49.233v-16.928h49.233z" fill="#fffdfd"/><path d="m95.297 207.329h-85.797" fill="none" stroke="#000" stroke-width="5"/><path d="m73.529 185.912h-42.616" fill="none" stroke="#000" stroke-width="12"/><text transform="matrix(-1 0 0 -1 11.785 220.495)"><tspan font-family="ArialMT" font-size="19" x="-5.548" y="6">+</tspan></text><text transform="matrix(-1 0 0 -1 13.504 178.579)"><tspan font-family="ArialMT" font-size="23" x="-3.83" y="7.5">-</tspan></text><path d="m357.04 186.615h-49.233v-16.928h49.233z" fill="#fffdfd"/><path d="m375.999 189.043h-85.797" fill="none" stroke="#000" stroke-width="5"/><path d="m354.231 167.627h-42.616" fill="none" stroke="#000" stroke-width="12"/><text transform="matrix(-1 0 0 -1 292.487 202.21)"><tspan font-family="ArialMT" font-size="19" x="-5.548" y="6">+</tspan></text><path d="m357.04 113.614h-49.233v-16.928h49.233z" fill="#fffdfd"/><path d="m375.999 116.043h-85.797" fill="none" stroke="#000" stroke-width="5"/><path d="m354.231 94.627h-42.616" fill="none" stroke="#000" stroke-width="12"/><text transform="matrix(-1 0 0 -1 294.206 87.293)"><tspan font-family="ArialMT" font-size="23" x="-3.83" y="7.5">-</tspan></text><g stroke="#000"><path d="m333.439 167.627v-51.584" fill="none" stroke-dasharray="6 4" stroke-width="2"/><path d="m51.016 145.335h80.947" fill="none" stroke-width="3"/><path d="m51.016 243.298h280.703" fill="none" stroke-width="3"/><path d="m51.016 209v34.298" fill="none" stroke-width="3"/><path d="m203.016 52.5v58.019" fill="none" stroke-width="3"/><path d="m203.016 180.131v63.167" fill="none" stroke-width="3"/><path d="m51.016 145.335v38.682" fill="none" stroke-width="3"/><path d="m331.719 96.495v-43.995" fill="none" stroke-width="3"/><path d="m203.016 52.5h128.703" fill="none" stroke-width="3"/><path d="m331.719 188.038v55.26" fill="none" stroke-width="3"/></g><path d="m203.016 247.048c-2.071 0-3.75-1.679-3.75-3.75s1.679-3.75 3.75-3.75c2.072 0 3.75 1.679 3.75 3.75s-1.678 3.75-3.75 3.75z"/><path d="m203.016 247.048c-2.071 0-3.75-1.679-3.75-3.75s1.679-3.75 3.75-3.75c2.072 0 3.75 1.679 3.75 3.75s-1.678 3.75-3.75 3.75z" fill="none" stroke="#000" stroke-width="3"/><path d="m58.028 145.335h33.9" fill="none" stroke="#000" stroke-width="3"/><path d="m91.928 149.535 11.2-4.2-11.2-4.2z" stroke="#000" stroke-width="3"/><path d="m203.016 61.372v21.523" fill="none" stroke="#000" stroke-width="3"/><path d="m198.816 82.895 4.2 11.2 4.2-11.2z" stroke="#000" stroke-width="3"/><path d="m203.016 223.205v-15.893" fill="none" stroke="#000" stroke-width="3"/><path d="m207.216 207.312-4.2-11.2-4.2 11.2z" stroke="#000" stroke-width="3"/><text transform="translate(221.374 207.958)"><tspan fill="#656565" font-family="Avenir-MediumOblique" font-size="21" x="-6.811" y="5.938">I</tspan> <tspan fill="#656565" font-family="Avenir-MediumOblique" font-size="14" x="-.973" y="5.938">e</tspan></text><text transform="translate(221.374 78.434)"><tspan fill="#656565" font-family="Avenir-MediumOblique" font-size="21" x="-6.293" y="5.938">I</tspan> <tspan fill="#656565" font-family="Avenir-MediumOblique" font-size="14" x="-.455" y="5.938">c</tspan></text><text transform="translate(94.013 126.817)"><tspan fill="#656565" font-family="Avenir-MediumOblique" font-size="21" x="-7.196" y="5.938">I</tspan> <tspan fill="#656565" font-family="Avenir-MediumOblique" font-size="14" x="-1.358" y="5.938">b</tspan></text><path d="m507.696 187.674h49.232v16.928h-49.232z" fill="#fffdfd"/><path d="m489.736 186.246h85.797" fill="none" stroke="#000" stroke-width="5"/><path d="m511.504 207.662h42.616" fill="none" stroke="#000" stroke-width="12"/><text transform="translate(572.248 172.079)"><tspan font-family="ArialMT" font-size="19" x="-5.548" y="6">+</tspan></text><text transform="translate(570.53 213.995)"><tspan font-family="ArialMT" font-size="23" x="-3.83" y="7.5">-</tspan></text><path d="m788.398 100.388h49.233v16.928h-49.233z" fill="#fffdfd"/><path d="m770.439 98.96h85.797" fill="none" stroke="#000" stroke-width="5"/><path d="m792.206 120.376h42.617" fill="none" stroke="#000" stroke-width="12"/><text transform="translate(852.95 84.793)"><tspan font-family="ArialMT" font-size="19" x="-5.548" y="6">+</tspan></text><path d="m788.398 173.389h49.233v16.928h-49.233z" fill="#fffdfd"/><path d="m770.439 171.96h85.797" fill="none" stroke="#000" stroke-width="5"/><path d="m792.206 193.376h42.617" fill="none" stroke="#000" stroke-width="12"/><text transform="translate(851.232 199.71)"><tspan font-family="ArialMT" font-size="23" x="-3.83" y="7.5">-</tspan></text><path d="m812.998 120.376v51.584" fill="none" stroke="#000" stroke-dasharray="6 4" stroke-width="2"/><path d="m534.016 145.335h80.946" fill="none" stroke="#000" stroke-width="3"/><path d="m534.016 243.298h280.703" fill="none" stroke="#000" stroke-width="3"/><path d="m534.016 209v34.298" fill="none" stroke="#000" stroke-width="3"/><path d="m686.016 52.5v58.019" fill="none" stroke="#000" stroke-width="3"/><path d="m686.016 180.131v63.167" fill="none" stroke="#000" stroke-width="3"/><path d="m534.016 145.335v38.682" fill="none" stroke="#000" stroke-width="3"/><path d="m814.719 96.495v-43.995" fill="none" stroke="#000" stroke-width="3"/><path d="m686.016 52.5h128.703" fill="none" stroke="#000" stroke-width="3"/><path d="m814.719 188.038v55.26" fill="none" stroke="#000" stroke-width="3"/><path d="m686.016 247.048c-2.071 0-3.75-1.679-3.75-3.75s1.679-3.75 3.75-3.75 3.75 1.679 3.75 3.75-1.679 3.75-3.75 3.75z"/><path d="m686.016 247.048c-2.071 0-3.75-1.679-3.75-3.75s1.679-3.75 3.75-3.75 3.75 1.679 3.75 3.75-1.679 3.75-3.75 3.75z" fill="none" stroke="#000" stroke-width="3"/><path d="m541.027 145.335h33.9" fill="none" stroke="#000" stroke-width="3"/><path d="m574.927 149.535 11.2-4.2-11.2-4.2z" stroke="#000" stroke-width="3"/><path d="m686.016 61.372v21.523" fill="none" stroke="#000" stroke-width="3"/><path d="m681.816 82.895 4.2 11.2 4.2-11.2z" stroke="#000" stroke-width="3"/><path d="m686.016 223.205v-15.893" fill="none" stroke="#000" stroke-width="3"/><path d="m690.216 207.312-4.2-11.2-4.2 11.2z" stroke="#000" stroke-width="3"/><text transform="translate(704.374 207.958)"><tspan fill="#656565" font-family="Avenir-MediumOblique" font-size="21" x="-6.811" y="5.938">I</tspan> <tspan fill="#656565" font-family="Avenir-MediumOblique" font-size="14" x="-.973" y="5.938">e</tspan></text><text transform="translate(704.374 78.434)"><tspan fill="#656565" font-family="Avenir-MediumOblique" font-size="21" x="-6.293" y="5.938">I</tspan> <tspan fill="#656565" font-family="Avenir-MediumOblique" font-size="14" x="-.455" y="5.938">c</tspan></text><text transform="translate(577.013 126.817)"><tspan fill="#656565" font-family="Avenir-MediumOblique" font-size="21" x="-7.196" y="5.938">I</tspan> <tspan fill="#656565" font-family="Avenir-MediumOblique" font-size="14" x="-1.358" y="5.938">b</tspan></text><path d="m658.999 189.371c-24.321 0-44.037-19.715-44.037-44.036s19.716-44.037 44.037-44.037 44.037 19.716 44.037 44.037-19.716 44.036-44.037 44.036z" fill="none" stroke="#000" stroke-width="3"/><path d="m658.912 113.846h8.05v62.977h-8.05z" fill="none" stroke="#000" stroke-width="3"/><path d="m658.912 145.945h-43.95" fill="none" stroke="#000" stroke-width="2"/><path d="m684.955 111.852-17.993 21.782" fill="none" stroke="#000" stroke-width="2"/><path d="m677.44 170.467-10.478-12.684" fill="none" stroke="#000" stroke-width="2"/><path d="m674.665 172.76 8.889 5.108-3.339-9.694z" stroke="#000" stroke-width="2"/><text transform="translate(682.867 26)"><tspan fill="#656565" font-family="Avenir-MediumOblique" font-size="30" x="-41.115" y="4">N P N</tspan></text><text transform="translate(307.468 319.355)"><tspan fill="#656565" font-family="Avenir-HeavyOblique" font-size="21" x="-301.23" y="-11.5">NB:</tspan> <tspan fill="#656565" font-family="Avenir-MediumOblique" font-size="21" x="-264.69" y="-11.5">Current directions shown flowing into the devices, are</tspan> <tspan fill="#656565" font-family="Avenir-MediumOblique" font-size="21" x="-301.23" y="17.5">accommodated by appropriate polarities in the equations</tspan></text><text transform="translate(190.868 26)"><tspan fill="#656565" font-family="Avenir-MediumOblique" font-size="30" x="-38.07" y="4">P N P</tspan></text></svg>